<svg width="32" height="32" viewBox="0 0 32 32" fill="none" xmlns="http://www.w3.org/2000/svg">
<g clip-path="url(#clip0_2078_59)">
<path d="M31.8958 0.104126H26.5972L15.9999 10.7014L5.40472 0.104126H0.104004V5.40484L10.7013 16L0.104004 26.5973V31.8959H5.40472L15.9999 21.3007L26.5972 31.8959H31.8958V26.5973L21.3006 16L31.8958 5.40484V0.104126Z" stroke="white" stroke-miterlimit="10"/>
<path d="M22.4248 11.6765L18.2173 15.884L22.4248 20.0915L26.6323 15.884L22.4248 11.6765Z" fill="white"/>
<path d="M16.3042 5.55551L12.0967 9.763L16.3042 13.9705L20.5117 9.763L16.3042 5.55551Z" fill="white"/>
<path d="M10.1845 11.6746L5.97705 15.8821L10.1845 20.0896L14.392 15.8821L10.1845 11.6746Z" fill="white"/>
<path d="M16.3037 17.7971L12.0962 22.0046L16.3037 26.2121L20.5112 22.0046L16.3037 17.7971Z" fill="white"/>
</g>
<defs>
<clipPath id="clip0_2078_59">
<rect width="32" height="32" fill="white"/>
</clipPath>
</defs>
</svg>
