<svg width="48" height="55" viewBox="0 0 48 55" fill="none" xmlns="http://www.w3.org/2000/svg">
<path d="M47.8061 13.9167L47.9395 13.8278C47.6727 13.3387 47.2724 12.8941 46.8722 12.6718L25.3928 0.311237C25.037 0.0889248 24.5479 0 24.0142 0C23.4806 0 22.9914 0.133387 22.6356 0.311237L1.28965 12.7162C0.533649 13.1609 0 14.2724 0 15.1172V39.8828C0 40.3719 0.0889414 40.9054 0.400237 41.3945L0.311295 41.439C0.533649 41.7947 0.844945 42.1059 1.15624 42.2838L22.5912 54.6888C22.9469 54.9111 23.4361 55 23.9697 55C24.5034 55 24.9926 54.8666 25.3483 54.6888L46.6943 42.2838C47.4503 41.8391 47.984 40.7276 47.984 39.8828V15.0728C48.0284 14.7171 47.984 14.3169 47.8061 13.9167ZM24.0142 45.0404C14.3196 45.0404 6.44826 37.1706 6.44826 27.4778C6.44826 17.785 14.3196 9.91512 24.0142 9.91512C30.5514 9.91512 36.2437 13.5166 39.2677 18.8076L33.4865 22.1423C31.6187 18.8076 28.0611 16.5845 24.0142 16.5845C18.0107 16.5845 13.1189 21.4753 13.1189 27.4778C13.1189 33.4802 18.0107 38.3711 24.0142 38.3711C28.0611 38.3711 31.6187 36.1479 33.4865 32.8577L39.2232 36.2369C36.1992 41.4834 30.5069 45.0404 24.0142 45.0404ZM46.6943 26.5885H45.2712L44.871 28.367H46.6943V30.5901H44.4708L43.9371 33.2579H41.7581L42.2917 30.5901H40.6018L40.0682 33.2579H37.9336L38.4672 30.5901H37.3554V28.367H38.9119L39.3122 26.5885H37.3554V24.3654H39.7124L40.246 21.6977H42.4251L41.8915 24.3654H43.5814L44.115 21.6977H46.2496L45.716 24.3654H46.6943V26.5885ZM41.0465 28.367H42.7364L43.1366 26.5885H41.4468L41.0465 28.367Z" fill="#D4D4E3"/>
</svg>
