<svg width="42" height="48" viewBox="0 0 42 48" fill="none" xmlns="http://www.w3.org/2000/svg">
<path d="M0 0L3.8225 43.1871L20.9745 48L38.1745 43.1695L42 0H0ZM34.0589 9.89436L32.7865 24.2814L32.7903 24.3591L32.7849 24.5377V24.5362L31.8809 34.5958L31.7813 35.4895L21 38.4905L20.9916 38.4982L10.2289 35.4804L9.50018 27.1634H14.7779L15.1524 31.3925L21.0015 32.9878L21 32.9909V32.9901L26.8708 31.3722L27.4912 24.4853H15.2185L15.1132 23.3211L14.8734 20.5937L14.7475 19.1291H27.9577L28.4382 13.773H8.31789L8.21258 12.6096L7.97308 9.88135L7.84687 8.41682H34.1847L34.0589 9.89436Z" fill="#D4D4E3"/>
</svg>
