<svg width="32" height="48" viewBox="0 0 32 48" fill="none" xmlns="http://www.w3.org/2000/svg">
<path d="M8 48C12.4279 48 16 44.4279 16 40V32H8C3.57209 32 0 35.5721 0 40C0 44.4279 3.57209 48 8 48Z" fill="#D4D4E3"/>
<path d="M0 24C0 19.5721 3.57209 16 8 16H16V32H8C3.57209 32 0 28.4279 0 24Z" fill="#D4D4E3"/>
<path d="M0 8C0 3.57209 3.57209 0 8 0H16V16H8C3.57209 16 0 12.4279 0 8Z" fill="#D4D4E3"/>
<path d="M16 0H24C28.4279 0 32 3.57209 32 8C32 12.4279 28.4279 16 24 16H16V0Z" fill="#D4D4E3"/>
<path d="M32 24C32 28.4279 28.4279 32 24 32C19.5721 32 16 28.4279 16 24C16 19.5721 19.5721 16 24 16C28.4279 16 32 19.5721 32 24Z" fill="#D4D4E3"/>
</svg>
