<svg width="49" height="48" viewBox="0 0 49 48" fill="none" xmlns="http://www.w3.org/2000/svg">
<path d="M48.0756 21.8621L26.6816 0.905176C25.4504 -0.301725 23.4521 -0.301725 22.2189 0.905176L17.7768 5.25747L23.4121 10.7779C24.7222 10.3448 26.2236 10.6353 27.2674 11.6578C28.3166 12.6867 28.6108 14.1701 28.1578 15.4576L33.589 20.7784C34.9029 20.3346 36.4195 20.6213 37.4683 21.651C38.9356 23.0872 38.9356 25.4155 37.4683 26.8524C37.1196 27.1941 36.7056 27.4652 36.25 27.6502C35.7943 27.8351 35.3059 27.9303 34.8127 27.9303C34.3195 27.9303 33.8311 27.8351 33.3754 27.6502C32.9197 27.4652 32.5057 27.1941 32.1571 26.8524C31.6332 26.3389 31.2761 25.6851 31.1307 24.9732C30.9853 24.2614 31.0581 23.5233 31.34 22.8518L26.2752 17.8904L26.2745 30.9484C26.6419 31.1257 26.9774 31.3605 27.2678 31.6435C28.7342 33.0797 28.7342 35.4072 27.2678 36.8464C25.8009 38.2826 23.4234 38.2826 21.9581 36.8464C20.4916 35.4076 20.4916 33.0801 21.9581 31.6435C22.3094 31.2988 22.7273 31.0261 23.1874 30.8412V17.6622C22.7269 17.4779 22.3089 17.205 21.9581 16.8595C20.8472 15.772 20.5797 14.175 21.1495 12.8381L15.5938 7.3956L0.924295 21.7651C0.332469 22.345 0 23.1315 0 23.9515C0 24.7715 0.332469 25.558 0.924295 26.1379L22.3187 47.0948C23.5507 48.3017 25.5482 48.3017 26.7822 47.0948L48.076 26.2353C48.6677 25.6552 49.0001 24.8687 49 24.0486C48.9999 23.2285 48.6674 22.4421 48.0756 21.8621Z" fill="#D4D4E3"/>
</svg>
