<svg width="48" height="48" viewBox="0 0 48 48" fill="none" xmlns="http://www.w3.org/2000/svg">
<path d="M0 0V48H48V0H0ZM25.3897 40.901C24.6812 42.3406 23.3288 43.2864 21.7617 43.743C19.3536 44.2959 17.0504 43.9807 15.337 42.9523C14.1903 42.2488 13.2948 41.166 12.687 39.9183L16.3427 37.6796C16.3745 37.6931 16.4705 37.8666 16.5988 38.0909C17.065 38.8719 17.467 39.4249 18.2573 39.8131C19.0337 40.0781 20.7383 40.2474 21.3965 38.8811C21.7985 38.1861 21.6707 35.952 21.6707 33.4802C21.6703 29.596 21.6883 25.728 21.6883 21.888H26.1846C26.1846 26.112 26.2076 30.1125 26.1846 34.2344C26.1942 36.7611 26.4134 39.0136 25.3897 40.901ZM44.0421 39.6307C42.4792 44.9768 33.7655 45.1503 30.2834 41.6183C29.5476 40.7869 29.0865 40.3526 28.6476 39.393C30.498 38.3286 30.498 38.3286 32.2986 37.2868C33.2767 38.7901 34.181 39.6169 35.808 39.9552C38.0152 40.2248 40.2359 39.4664 39.7379 37.122C39.226 35.2074 35.2182 34.7416 32.4906 32.6941C29.7216 30.8344 29.0726 26.3155 31.3482 23.7335C32.1066 22.7785 33.3999 22.0658 34.757 21.7233L36.1732 21.5401C38.8923 21.4852 40.5919 22.2033 41.8395 23.5964C42.1866 23.9482 42.47 24.3276 42.9999 25.1497C41.5515 26.0728 41.5561 26.064 39.4813 27.4072C39.0382 26.4526 38.3028 25.8536 37.5256 25.5932C36.3191 25.2276 34.7977 25.6251 34.482 26.9C34.3726 27.2928 34.3953 27.6584 34.5692 28.3073C35.058 29.4221 36.6985 29.9067 38.17 30.5829C42.4059 32.3009 43.8363 34.143 44.188 36.3356C44.5267 38.2234 44.1062 39.4479 44.0421 39.6307Z" fill="#D4D4E3"/>
</svg>
