<svg width="48" height="48" viewBox="0 0 48 48" fill="none" xmlns="http://www.w3.org/2000/svg">
<g clip-path="url(#clip0_2130_78)">
<path d="M23.9184 0C12.5856 0 12.4639 4.39898 12.4639 5.30444C12.4639 6.67811 12.4639 10.8 12.4639 10.8H24.1366V12.4499C24.1366 12.4499 11.983 12.4499 7.82749 12.4499C4.35884 12.4499 0 14.5588 0 23.9044C0 32.489 3.40015 35.8089 6.83171 35.8089C7.85062 35.8089 10.9091 35.8089 10.9091 35.8089C10.9091 35.8089 10.9091 31.5478 10.9091 30.0816C10.9091 27.6855 12.0964 23.2499 17.6317 23.2499C24.5743 23.2499 26.3463 23.2499 29.2089 23.2499C30.9116 23.2499 35.7133 22.5098 35.7133 16.9636C35.7133 11.0937 35.7133 9.15709 35.7133 6.39535C35.7137 5.01949 35.4785 0 23.9184 0ZM17.482 3.69556C18.6436 3.69556 19.5823 4.63374 19.5823 5.79578C19.5823 6.95694 18.6436 7.896 17.482 7.896C16.3204 7.896 15.3818 6.95738 15.3818 5.79578C15.3818 4.63374 16.3204 3.69556 17.482 3.69556Z" fill="#D4D4E3"/>
<path d="M24.0815 48C35.409 48 35.55 43.5181 35.55 42.6955C35.55 41.3219 35.55 37.2 35.55 37.2H23.8633V35.5501C23.8633 35.5501 36.0954 35.5501 40.1724 35.5501C43.6672 35.5501 47.9999 33.3883 47.9999 24.0955C47.9999 13.9187 43.4015 12.1911 41.1682 12.1911C40.1488 12.1911 37.0908 12.1911 37.0908 12.1911C37.0908 12.1911 37.0908 16.649 37.0908 17.9184C37.0908 20.3144 35.9427 24.7501 30.3682 24.7501C23.4256 24.7501 21.8696 24.7501 18.7906 24.7501C17.0922 24.7501 12.2861 25.5774 12.2861 31.0363C12.2861 37.3527 12.2861 39.0065 12.2861 41.6046C12.2861 43.8868 13.6808 48 24.0815 48ZM30.5183 44.3044C29.3567 44.3044 28.4181 43.3658 28.4181 42.2042C28.4181 41.0426 29.3562 40.104 30.5183 40.104C31.6794 40.104 32.6185 41.0426 32.6185 42.2042C32.6185 43.3658 31.6794 44.3044 30.5183 44.3044Z" fill="#D4D4E3"/>
</g>
<defs>
<clipPath id="clip0_2130_78">
<rect width="48" height="48" fill="white"/>
</clipPath>
</defs>
</svg>
