<svg width="81" height="48" viewBox="0 0 81 48" fill="none" xmlns="http://www.w3.org/2000/svg">
<g clip-path="url(#clip0_2130_141)">
<path fill-rule="evenodd" clip-rule="evenodd" d="M40.4705 0C29.6902 0 22.9745 5.32683 20.2647 15.9805C24.3295 10.6537 29.0422 8.66341 34.4618 9.95122C37.5251 10.7122 39.7636 12.9366 42.1789 15.3366C46.1258 19.3756 50.7207 24 60.7353 24C71.5156 24 78.2902 18.6732 81 8.01951C76.9353 13.3463 72.2225 15.3366 66.8618 13.9902C63.7985 13.2293 61.56 11.0049 59.1447 8.60488C55.1389 4.62439 50.544 0 40.4705 0ZM20.2647 24C9.42546 24 2.70982 29.3268 0 39.9805C4.06473 34.6537 8.77745 32.6634 14.1971 33.9512C17.2604 34.7122 19.4989 36.9366 21.9142 39.3366C25.8611 43.3756 30.456 48 40.4705 48C51.2509 48 58.0255 42.6732 60.7353 32.0195C56.6705 37.3463 51.9578 39.3366 46.5382 37.9902C43.4749 37.2293 41.2364 35.0049 38.8211 32.6049C34.8742 28.6244 30.2793 24 20.2647 24Z" fill="#D4D4E3"/>
</g>
<defs>
<clipPath id="clip0_2130_141">
<rect width="81" height="48" fill="white"/>
</clipPath>
</defs>
</svg>
