<svg width="34" height="34" viewBox="0 0 34 34" fill="none" xmlns="http://www.w3.org/2000/svg">
<rect x="1" y="1" width="32" height="32" fill="#A471FF"/>
<path d="M34 0V10.7705H32V2H23.2295V0H34Z" fill="#D4D4E3"/>
<path d="M10.7705 0V2H2V10.7705H0V0H10.7705Z" fill="#D4D4E3"/>
<path d="M34 23.2295V34H23.2295V32H32V23.2295H34Z" fill="#D4D4E3"/>
<path d="M2 23.2295V32H10.7705V34H0V23.2295H2Z" fill="#D4D4E3"/>
<path d="M11.6357 24H9.19526L4 10H6.44048L10.4155 20.4549L14.3905 10H16.831L11.6357 24Z" fill="#1D2018"/>
<path d="M24.3409 24H18.6834V10H23.7123C24.5874 10 25.3393 10.1135 25.9679 10.3405C26.6088 10.5675 27.0834 10.8746 27.3915 11.2618C27.9831 11.9828 28.2789 12.7973 28.2789 13.7053C28.2789 14.8002 27.9585 15.6147 27.3176 16.1488C27.0834 16.3357 26.9231 16.4559 26.8369 16.5093C26.7506 16.5494 26.5965 16.6228 26.3746 16.7296C27.1758 16.9165 27.8106 17.3104 28.2789 17.9113C28.7596 18.4988 29 19.2332 29 20.1145C29 21.0892 28.6919 21.9504 28.0756 22.6981C27.3484 23.566 26.1035 24 24.3409 24ZM20.8651 15.8083H23.6383C25.216 15.8083 26.0049 15.2275 26.0049 14.0658C26.0049 13.3982 25.8138 12.9175 25.4317 12.6237C25.0496 12.33 24.458 12.1831 23.6568 12.1831H20.8651V15.8083ZM20.8651 21.8169H24.2854C25.0866 21.8169 25.6967 21.6834 26.1158 21.4163C26.5472 21.1359 26.7629 20.6152 26.7629 19.8541C26.7629 18.6123 25.8446 17.9914 24.0081 17.9914H20.8651V21.8169Z" fill="#1D2018"/>
</svg>
